<svg width="353" height="9" viewBox="0 0 353 9" fill="none" xmlns="http://www.w3.org/2000/svg">
<path d="M176.394 2.63649C175.398 2.63649 174.59 3.44104 174.59 4.43274C174.59 5.42526 175.398 6.229 176.394 6.229C177.389 6.229 178.196 5.42526 178.196 4.43274C178.196 3.44104 177.389 2.63649 176.394 2.63649Z" fill="#1A1A1A"/>
<path d="M176.392 7.32773C174.787 7.32773 173.487 6.03184 173.487 4.4326C173.487 2.83419 174.787 1.53832 176.392 1.53832C177.997 1.53832 179.297 2.83419 179.297 4.4326C179.297 6.03184 177.997 7.32773 176.392 7.32773ZM176.392 8.39233e-05C173.942 8.39233e-05 171.949 1.9884 171.949 4.4326C171.949 6.87763 173.942 8.86597 176.392 8.86597C178.842 8.86597 180.835 6.87763 180.835 4.4326C180.835 1.9884 178.842 8.39233e-05 176.392 8.39233e-05Z" fill="#1A1A1A"/>
<path d="M17.6354 4.23725C16.8415 4.23725 16.0468 4.00562 15.4104 3.51925C14.9455 3.16066 14.521 2.67511 14.3091 2.01068C13.7691 2.88697 12.9539 3.44587 12.1279 3.79457C10.8567 3.22412 9.33166 2.17966 8.72741 0.333117C7.47769 2.37998 5.29646 3.40383 3.43178 3.92152C1.5572 4.42767 0 4.42768 0 4.42768C0 4.42768 1.5572 4.42769 3.43178 4.94455C5.29646 5.45153 7.47769 6.47538 8.72741 8.53296C9.33166 6.68641 10.8567 5.64112 12.1279 5.06078C12.9539 5.4202 13.7691 5.97911 14.3091 6.8554C14.4682 6.35914 14.7444 5.95768 15.0609 5.64113C15.7492 4.96598 16.6923 4.628 17.6568 4.628L17.6354 4.23725Z" fill="#1A1A1A"/>
<path d="M13.9375 3.66367V5.2019H173.489V3.66367H13.9375Z" fill="#1A1A1A"/>
<path d="M349.354 3.92152C347.489 3.40383 345.308 2.37998 344.058 0.333117C343.454 2.17966 341.929 3.22412 340.658 3.79457C339.832 3.44587 339.016 2.88697 338.477 2.01068C338.264 2.67511 337.84 3.16066 337.374 3.51925C336.739 4.00562 335.945 4.23725 335.15 4.23725L335.129 4.628C336.093 4.628 337.036 4.96598 337.725 5.64113C338.041 5.95768 338.318 6.35914 338.477 6.8554C339.016 5.97911 339.832 5.4202 340.658 5.06078C341.929 5.64112 343.454 6.68641 344.058 8.53296C345.308 6.47538 347.489 5.45153 349.354 4.94455C351.229 4.42769 352.786 4.42768 352.786 4.42768C352.786 4.42768 351.229 4.42767 349.354 3.92152Z" fill="#1A1A1A"/>
<path d="M179.297 3.66367V5.2019H338.849V3.66367H179.297Z" fill="#1A1A1A"/>
</svg>
